#!OML:ASF F:\VICON\USERDATA\INSTALL\rory3\rory3.ASF
:FULLY-SPECIFIED
:DEGREES
44
root 0.15873504952050943 16.821064043812537 -8.700723426893575 25.838448853745383 2.70504384175101 -2.5378725284746357
lfemur -42.04223103796646 8.034748889795166 -18.735046922650934
ltibia 54.61627085548129
lfoot -8.06425457794673 7.652141624234389
ltoes -18.037448754420236
rfemur -35.91969685758324 -1.7034608763670813 22.334472242831897
rtibia 48.13814214396726
rfoot -18.378806719806768 -11.310665378660998
rtoes -24.12760076285813
lowerback 28.38592913030623 0.8579387764284202 -2.4602593986519263
upperback 3.012349462819696 0.9330133078810737 2.0789777563780003
thorax -4.74014510348439 0.48830413218721824 3.1606855987204963
lowerneck -13.239429327079518 -0.3674194088826598 -1.9342245353313343
upperneck 3.891382017153159 -0.10658019503072147 -0.624540492365848
head 1.9125342069008164 -0.1134479381407999 -0.037983271467275176
lclavicle 3.871284202481119e-16 -1.4353843553254444e-15
lhumerus -16.936927466446182 -3.4635105936693122 79.1206461954646
lradius 25.54311511804719
lwrist 31.43824005129882
lhand -28.51739787867269 -8.960897853615663
lfingers 7.12502
lthumb -1.8811448698301718 21.129806075606584
rclavicle 3.8915527957211678e-16 -1.4329951169550645e-15
rhumerus -9.777205755520677 -3.049726806245462 -77.65629014325167
rradius 45.0382519212349
rwrist 20.145369245249185
rhand -27.383694220348698 -25.002588120029337
rfingers 7.12502
rthumb -0.6040471967135925 -55.34745889063202
45
root 0.20595195679759226 17.831014402196743 -6.901854410366809 18.030390118780943 1.1614272436156385 -2.3280955512330235
lfemur -26.69861810749936 8.372780001794348 -17.39599936331584
ltibia 41.641773648079145
lfoot 4.294341764458979 4.055037327624781
ltoes -14.946509980818533
rfemur -22.610793222447107 -3.012192889183389 21.244426714848295
rtibia 39.13274061992042
rfoot -3.1761689653302767 -4.467951287596576
rtoes -16.939617569264257
lowerback 22.105043732496632 1.3242550048947792 -1.9431257443548886
upperback 4.530282118962493 1.512085755630894 1.5305510608598107
thorax -0.8079191140086344 0.685965163232342 2.3881539478912783
lowerneck -10.956147107318914 -0.2593953301390677 -2.1884074105013056
upperneck 8.2622735354772 -0.023708241394307716 -0.725639519251526
head 2.2764366350039706 -0.09779823632545726 -0.11048006722662437
lclavicle 3.8756562740505463e-16 -1.434821297955541e-15
lhumerus -14.928947181882029 -8.891603984147942 79.51663059816909
lradius 29.211149377831617
lwrist 34.519062027381906
lhand -28.28530663403713 -9.258764867657696
lfingers 7.12502
lthumb -1.7668227741177365 20.86387185143222
rclavicle 3.888336982980854e-16 -1.4334508149700658e-15
rhumerus -10.580393907158767 1.6767238169029817 -78.69465665170662
rradius 49.19416661774033
rwrist 18.950020020281606
rhand -26.763491902350843 -22.97145720838572
rfingers 7.12502
rthumb 0.005544355004367674 -53.05589416157755
46
root 0.24712498537828254 18.958173518370817 -5.240584407150336 13.634755140659504 -0.30886506546888226 -2.229046342473067
lfemur -19.68139378004542 6.893394010427398 -16.235843498949873
ltibia 34.16636788948788
lfoot 12.758208324297817 4.93538514485991
ltoes -8.730990945416277
rfemur -17.791065697377693 -2.8507879125753304 20.269735851952664
rtibia 37.26762429470212
rfoot 11.560975950950306 -7.7325491503502946
rtoes 9.1695524214373
lowerback 14.998311867310116 1.6279141305339013 -1.3998067896547657
upperback 5.344311402275265 1.8948528799866435 1.1390238524400682
thorax 1.795807139951666 0.8203476975639012 1.9241741398926193
lowerneck -9.895001662418261 0.010771221060062786 -1.9449689174012472
upperneck 12.306468290297675 0.27347646632168354 -0.8563817233580044
head 2.6801235619070116 0.028421925383095736 -0.1762898662166553
lclavicle 3.875521638884639e-16 -1.434933981779666e-15
lhumerus -14.992129433344964 -12.77457466415651 79.41013579511294
lradius 33.079934095316005
lwrist 36.5483112192648
lhand -27.815563432207643 -9.498349176470047
lfingers 7.12502
lthumb -1.4932346329519075 20.74041915086686
rclavicle 3.8845789822639317e-16 -1.4339823562465857e-15
rhumerus -13.113239966261478 6.012249291973804 -79.44768901906488
rradius 53.23400582192589
rwrist 18.47453119688812
rhand -26.518686482423625 -21.200868411563874
rfingers 7.12502
rthumb 0.26956453534029645 -51.023505253609976
47
root 0.2537372112631727 19.904285502464774 -3.924502416769366 12.597210286576324 -0.3813035910597966 -1.8857467351633403
lfemur -23.11473360661823 6.141492540620415 -16.44754716298617
ltibia 38.967144092712495
lfoot 13.101963575627556 4.221022991238985
ltoes -5.299432466334407
rfemur -19.794663840350204 -2.6572589571906793 20.06224068551461
rtibia 43.04195159199626
rfoot 13.543627457414521 -7.052682489023322
rtoes 17.70374797008492
lowerback 10.192988933940287 1.3226112740055402 -1.8796277724997883
upperback 5.421231593036855 1.482964225902884 1.0130566972673178
thorax 2.7234136639095703 0.6219067897496167 2.01808191687626
lowerneck -9.83242405786347 0.2891404613896968 -1.3737771787921713
upperneck 15.48474307632235 0.5968267378830185 -0.799466552940413
head 3.521044110574014 0.181248874468876 -0.10232503605609064
lclavicle 3.873744797906358e-16 -1.435281434587537e-15
lhumerus -15.497220332530544 -14.498981073999131 78.8095746563341
lradius 36.1936701396245
lwrist 38.1981537290922
lhand -27.332677345325123 -9.685015786638894
lfingers 7.12502
lthumb -1.20556831383485 20.56403801399944
rclavicle 3.8769539216583404e-16 -1.4350575161419333e-15
rhumerus -16.551376839355104 8.974621301784355 -79.56561634814801
rradius 56.03563600768563
rwrist 18.63798561124449
rhand -26.343242138394135 -20.525449392236723
rfingers 7.12502
rthumb 0.47648090908492424 -50.309945989853276
